<svg width="256" height="128" viewBox="0 0 256 128" fill="none" xmlns="http://www.w3.org/2000/svg">
<rect width="256" height="128" rx="64" fill="#1F1B13"/>
<path d="M49.0938 23.375C49.5312 23.125 49.9688 23 50.4062 23C51.125 23 51.8594 23.2969 52.6094 23.8906C53.3906 24.4531 54.0938 25.2188 54.7188 26.1875C55.8438 27.875 56.4062 29.3594 56.4062 30.6406C56.4062 31.4844 56.125 32.0938 55.5625 32.4688C49.3125 36.375 44.5938 40.8594 41.4062 45.9219C38.2188 50.9531 36.625 56.8125 36.625 63.5C36.625 70.1875 38.2188 76.0625 41.4062 81.125C44.5938 86.1562 49.3125 90.625 55.5625 94.5312C56.125 94.9062 56.4062 95.5156 56.4062 96.3594C56.4062 97.6406 55.8438 99.125 54.7188 100.812C54.0938 101.781 53.3906 102.547 52.6094 103.109C51.8594 103.703 51.125 104 50.4062 104C49.9688 104 49.5312 103.875 49.0938 103.625C44.75 101.156 40.7656 98.0625 37.1406 94.3438C33.5469 90.625 30.625 86.1562 28.375 80.9375C26.125 75.7188 25 69.9062 25 63.5C25 57.0938 26.125 51.2812 28.375 46.0625C30.625 40.8438 33.5469 36.375 37.1406 32.6562C40.7656 28.9375 44.75 25.8438 49.0938 23.375Z" fill="#FFC105"/>
<path d="M207.062 23.375C211.406 25.8438 215.375 28.9375 218.969 32.6562C222.594 36.375 225.531 40.8438 227.781 46.0625C230.031 51.2812 231.156 57.0938 231.156 63.5C231.156 69.9062 230.031 75.7188 227.781 80.9375C225.531 86.1562 222.594 90.625 218.969 94.3438C215.375 98.0625 211.406 101.156 207.062 103.625C206.625 103.875 206.188 104 205.75 104C205.031 104 204.281 103.703 203.5 103.109C202.75 102.547 202.062 101.781 201.438 100.812C200.312 99.125 199.75 97.6406 199.75 96.3594C199.75 95.5156 200.031 94.9062 200.594 94.5312C206.844 90.625 211.562 86.1562 214.75 81.125C217.938 76.0625 219.531 70.1875 219.531 63.5C219.531 56.8125 217.938 50.9531 214.75 45.9219C211.562 40.8594 206.844 36.375 200.594 32.4688C200.031 32.0938 199.75 31.4844 199.75 30.6406C199.75 29.3594 200.312 27.875 201.438 26.1875C202.062 25.2188 202.75 24.4531 203.5 23.8906C204.281 23.2969 205.031 23 205.75 23C206.188 23 206.625 23.125 207.062 23.375Z" fill="#FFC105"/>
<path d="M107.141 36C108.391 36 109.406 36.25 110.188 36.75C110.969 37.2188 111.531 37.9844 111.875 39.0469L125.469 82.0312H129.547C130.297 82.0312 130.875 82.1562 131.281 82.4062C131.688 82.6562 131.984 83.125 132.172 83.8125C132.391 84.5 132.5 85.5 132.5 86.8125C132.5 88.125 132.391 89.125 132.172 89.8125C131.984 90.5 131.688 90.9844 131.281 91.2656C130.875 91.5156 130.297 91.6406 129.547 91.6406H109.672C108.922 91.6406 108.344 91.5156 107.938 91.2656C107.531 90.9844 107.219 90.5 107 89.8125C106.812 89.125 106.719 88.125 106.719 86.8125C106.719 85.5 106.812 84.5 107 83.8125C107.219 83.125 107.531 82.6562 107.938 82.4062C108.344 82.1562 108.922 82.0312 109.672 82.0312H113.703L111.594 75.2344H94.5312L92.4219 82.0312H95.8906C96.6406 82.0312 97.2188 82.1562 97.625 82.4062C98.0312 82.6562 98.3281 83.125 98.5156 83.8125C98.7344 84.5 98.8438 85.5 98.8438 86.8125C98.8438 88.125 98.7344 89.125 98.5156 89.8125C98.3281 90.5 98.0312 90.9844 97.625 91.2656C97.2188 91.5156 96.6406 91.6406 95.8906 91.6406H76.9531C76.2031 91.6406 75.625 91.5156 75.2188 91.2656C74.8125 90.9844 74.5156 90.5 74.3281 89.8125C74.1094 89.125 74 88.125 74 86.8125C74 85.5 74.1094 84.5 74.3281 83.8125C74.5156 83.125 74.8125 82.6562 75.2188 82.4062C75.625 82.1562 76.2031 82.0312 76.9531 82.0312H80.8906L92.75 45.6094H84.9219C84.1719 45.6094 83.5938 45.4844 83.1875 45.2344C82.7812 44.9531 82.4688 44.4688 82.25 43.7812C82.0625 43.0938 81.9688 42.0938 81.9688 40.7812C81.9688 39.4688 82.0625 38.4688 82.25 37.7812C82.4688 37.0938 82.7812 36.625 83.1875 36.375C83.5938 36.125 84.1719 36 84.9219 36H107.141ZM103.016 45.6094L97.25 65.625H108.922L103.297 45.6094H103.016Z" fill="#FFC105"/>
<path d="M177.734 36C178.484 36 179.062 36.1406 179.469 36.4219C179.875 36.6719 180.172 37.1406 180.359 37.8281C180.578 38.5156 180.688 39.5156 180.688 40.8281C180.688 42.1406 180.578 43.1406 180.359 43.8281C180.172 44.5156 179.875 44.9844 179.469 45.2344C179.062 45.4844 178.484 45.6094 177.734 45.6094H166.672V82.0312H178.672C179.422 82.0312 180 82.1719 180.406 82.4531C180.812 82.7031 181.109 83.1719 181.297 83.8594C181.516 84.5469 181.625 85.5469 181.625 86.8594C181.625 88.1719 181.516 89.1719 181.297 89.8594C181.109 90.5469 180.812 91.0156 180.406 91.2656C180 91.5156 179.422 91.6406 178.672 91.6406H142.953C142.203 91.6406 141.625 91.5156 141.219 91.2656C140.812 91.0156 140.5 90.5469 140.281 89.8594C140.094 89.1719 140 88.1719 140 86.8594C140 85.5469 140.094 84.5469 140.281 83.8594C140.5 83.1719 140.812 82.7031 141.219 82.4531C141.625 82.1719 142.203 82.0312 142.953 82.0312H154.953V45.6094H143.891C143.141 45.6094 142.562 45.4844 142.156 45.2344C141.75 44.9844 141.438 44.5156 141.219 43.8281C141.031 43.1406 140.938 42.1406 140.938 40.8281C140.938 39.5156 141.031 38.5156 141.219 37.8281C141.438 37.1406 141.75 36.6719 142.156 36.4219C142.562 36.1406 143.141 36 143.891 36H177.734Z" fill="#FFC105"/>
</svg>
