<svg width="256" height="256" viewBox="0 0 256 256" fill="none" xmlns="http://www.w3.org/2000/svg">
<rect width="256" height="256" rx="42" fill="#1F1B13"/>
<path d="M182.922 172.625V162.641C186.516 160.922 189.141 157.578 190.797 152.609C192.484 147.641 193.328 139.562 193.328 128.375V127.25C193.328 116.062 192.484 108 190.797 103.062C189.109 98.0938 186.484 94.7344 182.922 92.9844V83C190.766 85.0625 197.188 89.7812 202.188 97.1562C207.219 104.531 209.734 114.672 209.734 127.578V128.047C209.734 140.922 207.219 151.047 202.188 158.422C197.188 165.828 190.766 170.562 182.922 172.625Z" fill="#FFC105"/>
<path d="M73.7656 172.625C65.9531 170.562 59.5312 165.844 54.5 158.469C49.5 151.094 47 140.953 47 128.047V127.578C47 114.703 49.5 104.578 54.5 97.2031C59.5312 89.7969 65.9531 85.0625 73.7656 83V92.9844C70.2031 94.7344 67.5781 98.0938 65.8906 103.062C64.2344 108 63.4062 116.062 63.4062 127.25V128.375C63.4062 139.562 64.2344 147.625 65.8906 152.562C67.5781 157.531 70.2031 160.891 73.7656 162.641V172.625Z" fill="#FFC105"/>
<path d="M86.2812 162.25L107.797 94H126.266L147.312 162.25H131.047L117.969 116.078C117.594 114.828 117.281 113.734 117.031 112.797C116.812 111.828 116.609 111 116.422 110.312H116.281C116.094 111 115.875 111.812 115.625 112.75C115.375 113.688 115.094 114.797 114.781 116.078L102.266 162.25H86.2812ZM98.6094 148.703L100.812 137.828H132.266L134.703 148.703H98.6094Z" fill="#FFC105"/>
<path d="M151.016 162.25V94H167.75V162.25H151.016Z" fill="#FFC105"/>
</svg>
